<?xml version="1.0" encoding="UTF-8" standalone="no"?>
<svg width="178.858mm" height="63.5mm"
 xmlns="http://www.w3.org/2000/svg" xmlns:xlink="http://www.w3.org/1999/xlink"  version="1.2" baseProfile="tiny">
<title>Qt SVG Document</title>
<desc>Generated with Qt</desc>
<defs>
</defs>
<g fill="none" stroke="black" stroke-width="1" fill-rule="evenodd" stroke-linecap="square" stroke-linejoin="bevel" >

<g fill="none" stroke="#000000" stroke-opacity="1" stroke-width="1" stroke-linecap="square" stroke-linejoin="bevel" transform="matrix(1,0,0,1,0,0)"
font-family="Ubuntu" font-size="11" font-weight="400" font-style="normal" 
>
</g>

<g fill="none" stroke="#000000" stroke-opacity="1" stroke-width="1" stroke-linecap="square" stroke-linejoin="bevel" transform="matrix(1,0,0,1,0,0)"
font-family="Ubuntu" font-size="11" font-weight="400" font-style="normal" 
>
</g>

<g fill="none" stroke="#000000" stroke-opacity="1" stroke-width="1" stroke-linecap="square" stroke-linejoin="bevel" transform="matrix(1.99853,0,0,1.99853,-0.00239824,179.868)"
font-family="Ubuntu" font-size="11" font-weight="400" font-style="normal" 
>
</g>

<g fill="#ffffff" fill-opacity="1" stroke="none" transform="matrix(1.99853,0,0,1.99853,-0.00239824,179.868)"
font-family="Ubuntu" font-size="11" font-weight="400" font-style="normal" 
>
<rect x="0.0012" y="-90" width="253.686" height="90"/>
</g>

<g fill="none" stroke="#000000" stroke-opacity="1" stroke-width="1" stroke-linecap="square" stroke-linejoin="bevel" transform="matrix(1.99853,0,0,1.99853,-0.00239824,179.868)"
font-family="Ubuntu" font-size="11" font-weight="400" font-style="normal" 
>
</g>

<g fill="none" stroke="#000000" stroke-opacity="1" stroke-width="1" stroke-linecap="square" stroke-linejoin="bevel" transform="matrix(1.99853,0,0,1.99853,-0.00239824,179.868)"
font-family="Ubuntu" font-size="11" font-weight="400" font-style="normal" 
>
</g>

<g fill="none" stroke="#000000" stroke-opacity="1" stroke-width="1" stroke-linecap="square" stroke-linejoin="bevel" transform="matrix(1.99853,0,0,1.99853,-0.00239824,179.868)"
font-family="Ubuntu" font-size="11" font-weight="400" font-style="normal" 
>
</g>

<g fill="none" stroke="#000000" stroke-opacity="1" stroke-width="1" stroke-linecap="square" stroke-linejoin="bevel" transform="matrix(1.99853,0,0,1.99853,-0.00239824,179.868)"
font-family="Ubuntu" font-size="11" font-weight="400" font-style="normal" 
>
</g>

<g fill="none" stroke="#000000" stroke-opacity="1" stroke-width="1" stroke-linecap="square" stroke-linejoin="round" transform="matrix(1.99853,0,0,1.99853,-0.00239824,179.868)"
font-family="Ubuntu" font-size="11" font-weight="400" font-style="normal" 
>
<ellipse cx="40.296" cy="-18" rx="39.7948" ry="17.5"/>
</g>

<g fill="none" stroke="#000000" stroke-opacity="1" stroke-width="1" stroke-linecap="square" stroke-linejoin="bevel" transform="matrix(1.99853,0,0,1.99853,-0.00239824,179.868)"
font-family="Ubuntu" font-size="11" font-weight="400" font-style="normal" 
>
</g>

<g fill="none" stroke="#000000" stroke-opacity="1" stroke-width="1" stroke-linecap="square" stroke-linejoin="bevel" transform="matrix(1.99853,0,0,1.99853,32.9716,130.904)"
font-family="Ubuntu" font-size="11" font-weight="400" font-style="normal" 
>
</g>

<g fill="none" stroke="#000000" stroke-opacity="1" stroke-width="1" stroke-linecap="square" stroke-linejoin="bevel" transform="matrix(1.99853,0,0,1.99853,32.9716,130.904)"
font-family="sans" font-size="11" font-weight="100" font-style="normal" 
>
</g>

<g fill="#000000" fill-opacity="1" stroke="#000000" stroke-opacity="1" stroke-width="1" stroke-linecap="square" stroke-linejoin="round" transform="matrix(1.99853,0,0,1.99853,32.9716,130.904)"
font-family="sans" font-size="11" font-weight="100" font-style="normal" 
>
<path vector-effect="none" fill-rule="nonzero" d="M2.79688,1.98438 L3.70312,1.98438 L0.90625,11.0156 L0,11.0156 L2.79688,1.98438 M8.57812,4.15625 L8.57812,5.09375 C8.29688,4.94792 8.00521,4.84115 7.70312,4.77344 C7.40104,4.70573 7.08854,4.67188 6.76562,4.67188 C6.27604,4.67188 5.90885,4.7474 5.66406,4.89844 C5.41927,5.04948 5.29688,5.27083 5.29688,5.5625 C5.29688,5.79167 5.38542,5.97135 5.5625,6.10156 C5.73958,6.23177 6.09375,6.35938 6.625,6.48438 L6.95312,6.5625 C7.66146,6.70833 8.16146,6.91927 8.45312,7.19531 C8.74479,7.47135 8.89062,7.85417 8.89062,8.34375 C8.89062,8.89583 8.67188,9.33594 8.23438,9.66406 C7.79688,9.99219 7.1875,10.1562 6.40625,10.1562 C6.08333,10.1562 5.7474,10.125 5.39844,10.0625 C5.04948,10 4.68229,9.90625 4.29688,9.78125 L4.29688,8.76562 C4.66146,8.95312 5.02083,9.09375 5.375,9.1875 C5.72917,9.28125 6.08333,9.32812 6.4375,9.32812 C6.89583,9.32812 7.25,9.2474 7.5,9.08594 C7.75,8.92448 7.875,8.70312 7.875,8.42188 C7.875,8.15104 7.78646,7.94271 7.60938,7.79688 C7.43229,7.65104 7.03646,7.51562 6.42188,7.39062 L6.07812,7.29688 C5.46354,7.17188 5.02083,6.97656 4.75,6.71094 C4.47917,6.44531 4.34375,6.07812 4.34375,5.60938 C4.34375,5.04688 4.54427,4.61198 4.94531,4.30469 C5.34635,3.9974 5.91667,3.84375 6.65625,3.84375 C7.02083,3.84375 7.36458,3.86979 7.6875,3.92188 C8.01042,3.97396 8.30729,4.05208 8.57812,4.15625 M15.6094,6.75 L15.6094,7.23438 L11.0625,7.23438 C11.1042,7.91146 11.3073,8.42708 11.6719,8.78125 C12.0365,9.13542 12.5469,9.3125 13.2031,9.3125 C13.5885,9.3125 13.9583,9.26562 14.3125,9.17188 C14.6667,9.07812 15.0208,8.94271 15.375,8.76562 L15.375,9.6875 C15.0208,9.84375 14.6562,9.96094 14.2812,10.0391 C13.9062,10.1172 13.5312,10.1562 13.1562,10.1562 C12.1875,10.1562 11.4245,9.8776 10.8672,9.32031 C10.3099,8.76302 10.0312,8.00521 10.0312,7.04688 C10.0312,6.06771 10.2969,5.28906 10.8281,4.71094 C11.3594,4.13281 12.0781,3.84375 12.9844,3.84375 C13.7865,3.84375 14.4245,4.10417 14.8984,4.625 C15.3724,5.14583 15.6094,5.85417 15.6094,6.75 M14.6094,6.45312 C14.6094,5.91146 14.4609,5.47917 14.1641,5.15625 C13.8672,4.83333 13.474,4.67188 12.9844,4.67188 C12.4323,4.67188 11.9922,4.82812 11.6641,5.14062 C11.3359,5.45312 11.1458,5.89062 11.0938,6.45312 L14.6094,6.45312 M17.2188,1.64062 L18.2188,1.64062 L18.2188,10 L17.2188,10 L17.2188,1.64062 M25.4219,6.75 L25.4219,7.23438 L20.875,7.23438 C20.9167,7.91146 21.1198,8.42708 21.4844,8.78125 C21.849,9.13542 22.3594,9.3125 23.0156,9.3125 C23.401,9.3125 23.7708,9.26562 24.125,9.17188 C24.4792,9.07812 24.8333,8.94271 25.1875,8.76562 L25.1875,9.6875 C24.8333,9.84375 24.4688,9.96094 24.0938,10.0391 C23.7188,10.1172 23.3438,10.1562 22.9688,10.1562 C22,10.1562 21.237,9.8776 20.6797,9.32031 C20.1224,8.76302 19.8438,8.00521 19.8438,7.04688 C19.8438,6.06771 20.1094,5.28906 20.6406,4.71094 C21.1719,4.13281 21.8906,3.84375 22.7969,3.84375 C23.599,3.84375 24.237,4.10417 24.7109,4.625 C25.1849,5.14583 25.4219,5.85417 25.4219,6.75 M24.4219,6.45312 C24.4219,5.91146 24.2734,5.47917 23.9766,5.15625 C23.6797,4.83333 23.2865,4.67188 22.7969,4.67188 C22.2448,4.67188 21.8047,4.82812 21.4766,5.14062 C21.1484,5.45312 20.9583,5.89062 20.9062,6.45312 L24.4219,6.45312 M31.3594,4.21875 L31.3594,5.14062 C31.0885,4.98438 30.8125,4.86719 30.5312,4.78906 C30.25,4.71094 29.9635,4.67188 29.6719,4.67188 C29.0365,4.67188 28.5417,4.875 28.1875,5.28125 C27.8333,5.6875 27.6562,6.26042 27.6562,7 C27.6562,7.72917 27.8333,8.29688 28.1875,8.70312 C28.5417,9.10938 29.0365,9.3125 29.6719,9.3125 C29.9635,9.3125 30.25,9.27604 30.5312,9.20312 C30.8125,9.13021 31.0885,9.01562 31.3594,8.85938 L31.3594,9.76562 C31.0885,9.90104 30.8047,10 30.5078,10.0625 C30.2109,10.125 29.8958,10.1562 29.5625,10.1562 C28.6562,10.1562 27.9375,9.8724 27.4062,9.30469 C26.875,8.73698 26.6094,7.96875 26.6094,7 C26.6094,6.02083 26.8776,5.25 27.4141,4.6875 C27.9505,4.125 28.6875,3.84375 29.625,3.84375 C29.9375,3.84375 30.237,3.875 30.5234,3.9375 C30.8099,4 31.0885,4.09375 31.3594,4.21875 M34.0625,2.28125 L34.0625,3.98438 L36.0938,3.98438 L36.0938,4.75 L34.0625,4.75 L34.0625,8.01562 C34.0625,8.50521 34.1302,8.82031 34.2656,8.96094 C34.401,9.10156 34.6719,9.17188 35.0781,9.17188 L36.0938,9.17188 L36.0938,10 L35.0781,10 C34.3177,10 33.7917,9.85677 33.5,9.57031 C33.2083,9.28385 33.0625,8.76562 33.0625,8.01562 L33.0625,4.75 L32.3438,4.75 L32.3438,3.98438 L33.0625,3.98438 L33.0625,2.28125 L34.0625,2.28125 M39.7344,4.67188 C39.2031,4.67188 38.7839,4.88021 38.4766,5.29688 C38.1693,5.71354 38.0156,6.28125 38.0156,7 C38.0156,7.71875 38.1667,8.28385 38.4688,8.69531 C38.7708,9.10677 39.1927,9.3125 39.7344,9.3125 C40.2552,9.3125 40.6693,9.10677 40.9766,8.69531 C41.2839,8.28385 41.4375,7.71875 41.4375,7 C41.4375,6.28125 41.2839,5.71354 40.9766,5.29688 C40.6693,4.88021 40.2552,4.67188 39.7344,4.67188 M39.7344,3.84375 C40.5885,3.84375 41.2604,4.1224 41.75,4.67969 C42.2396,5.23698 42.4844,6.01042 42.4844,7 C42.4844,7.97917 42.2396,8.75 41.75,9.3125 C41.2604,9.875 40.5885,10.1562 39.7344,10.1562 C38.8698,10.1562 38.1927,9.875 37.7031,9.3125 C37.2135,8.75 36.9688,7.97917 36.9688,7 C36.9688,6.01042 37.2135,5.23698 37.7031,4.67969 C38.1927,4.1224 38.8698,3.84375 39.7344,3.84375 M47.5938,4.90625 C47.4896,4.84375 47.3724,4.79688 47.2422,4.76562 C47.112,4.73438 46.9688,4.71875 46.8125,4.71875 C46.25,4.71875 45.8203,4.90104 45.5234,5.26562 C45.2266,5.63021 45.0781,6.15104 45.0781,6.82812 L45.0781,10 L44.0781,10 L44.0781,3.98438 L45.0781,3.98438 L45.0781,4.92188 C45.276,4.55729 45.5417,4.28646 45.875,4.10938 C46.2083,3.93229 46.6146,3.84375 47.0938,3.84375 C47.1667,3.84375 47.2422,3.84635 47.3203,3.85156 C47.3984,3.85677 47.4896,3.86979 47.5938,3.89062 L47.5938,4.90625"/>
</g>

<g fill="none" stroke="#000000" stroke-opacity="1" stroke-width="1" stroke-linecap="square" stroke-linejoin="bevel" transform="matrix(1.99853,0,0,1.99853,32.9716,130.904)"
font-family="sans" font-size="11" font-weight="100" font-style="normal" 
>
</g>

<g fill="none" stroke="#000000" stroke-opacity="1" stroke-width="1" stroke-linecap="square" stroke-linejoin="bevel" transform="matrix(1.99853,0,0,1.99853,32.9716,130.904)"
font-family="Ubuntu" font-size="11" font-weight="400" font-style="normal" 
>
</g>

<g fill="none" stroke="#000000" stroke-opacity="1" stroke-width="1" stroke-linecap="square" stroke-linejoin="bevel" transform="matrix(1.99853,0,0,1.99853,-0.00239824,179.868)"
font-family="Ubuntu" font-size="11" font-weight="400" font-style="normal" 
>
</g>

<g fill="none" stroke="#000000" stroke-opacity="1" stroke-width="1" stroke-linecap="square" stroke-linejoin="bevel" transform="matrix(1.99853,0,0,1.99853,-0.00239824,179.868)"
font-family="Ubuntu" font-size="11" font-weight="400" font-style="normal" 
>
</g>

<g fill="none" stroke="#000000" stroke-opacity="1" stroke-width="1" stroke-linecap="square" stroke-linejoin="bevel" transform="matrix(1.99853,0,0,1.99853,-0.00239824,179.868)"
font-family="Ubuntu" font-size="11" font-weight="400" font-style="normal" 
>
</g>

<g fill="none" stroke="#000000" stroke-opacity="1" stroke-width="1" stroke-linecap="square" stroke-linejoin="round" transform="matrix(1.99853,0,0,1.99853,-0.00239824,179.868)"
font-family="Ubuntu" font-size="11" font-weight="400" font-style="normal" 
>
<rect x="95.09" y="-35.5" width="69.9999" height="35"/>
</g>

<g fill="none" stroke="#000000" stroke-opacity="1" stroke-width="1" stroke-linecap="square" stroke-linejoin="bevel" transform="matrix(1.99853,0,0,1.99853,-0.00239824,179.868)"
font-family="Ubuntu" font-size="11" font-weight="400" font-style="normal" 
>
</g>

<g fill="none" stroke="#000000" stroke-opacity="1" stroke-width="1" stroke-linecap="square" stroke-linejoin="bevel" transform="matrix(1.99853,0,0,1.99853,205.464,130.904)"
font-family="Ubuntu" font-size="11" font-weight="400" font-style="normal" 
>
</g>

<g fill="none" stroke="#000000" stroke-opacity="1" stroke-width="1" stroke-linecap="square" stroke-linejoin="bevel" transform="matrix(1.99853,0,0,1.99853,205.464,130.904)"
font-family="sans" font-size="11" font-weight="100" font-style="normal" 
>
</g>

<g fill="#000000" fill-opacity="1" stroke="#000000" stroke-opacity="1" stroke-width="1" stroke-linecap="square" stroke-linejoin="round" transform="matrix(1.99853,0,0,1.99853,205.464,130.904)"
font-family="sans" font-size="11" font-weight="100" font-style="normal" 
>
<path vector-effect="none" fill-rule="nonzero" d="M2.79688,1.98438 L3.70312,1.98438 L0.90625,11.0156 L0,11.0156 L2.79688,1.98438 M9.0625,4.21875 L9.0625,5.14062 C8.79167,4.98438 8.51562,4.86719 8.23438,4.78906 C7.95312,4.71094 7.66667,4.67188 7.375,4.67188 C6.73958,4.67188 6.24479,4.875 5.89062,5.28125 C5.53646,5.6875 5.35938,6.26042 5.35938,7 C5.35938,7.72917 5.53646,8.29688 5.89062,8.70312 C6.24479,9.10938 6.73958,9.3125 7.375,9.3125 C7.66667,9.3125 7.95312,9.27604 8.23438,9.20312 C8.51562,9.13021 8.79167,9.01562 9.0625,8.85938 L9.0625,9.76562 C8.79167,9.90104 8.50781,10 8.21094,10.0625 C7.91406,10.125 7.59896,10.1562 7.26562,10.1562 C6.35938,10.1562 5.64062,9.8724 5.10938,9.30469 C4.57812,8.73698 4.3125,7.96875 4.3125,7 C4.3125,6.02083 4.58073,5.25 5.11719,4.6875 C5.65365,4.125 6.39062,3.84375 7.32812,3.84375 C7.64062,3.84375 7.9401,3.875 8.22656,3.9375 C8.51302,4 8.79167,4.09375 9.0625,4.21875 M13.125,4.67188 C12.5938,4.67188 12.1745,4.88021 11.8672,5.29688 C11.5599,5.71354 11.4062,6.28125 11.4062,7 C11.4062,7.71875 11.5573,8.28385 11.8594,8.69531 C12.1615,9.10677 12.5833,9.3125 13.125,9.3125 C13.6458,9.3125 14.0599,9.10677 14.3672,8.69531 C14.6745,8.28385 14.8281,7.71875 14.8281,7 C14.8281,6.28125 14.6745,5.71354 14.3672,5.29688 C14.0599,4.88021 13.6458,4.67188 13.125,4.67188 M13.125,3.84375 C13.9792,3.84375 14.651,4.1224 15.1406,4.67969 C15.6302,5.23698 15.875,6.01042 15.875,7 C15.875,7.97917 15.6302,8.75 15.1406,9.3125 C14.651,9.875 13.9792,10.1562 13.125,10.1562 C12.2604,10.1562 11.5833,9.875 11.0938,9.3125 C10.6042,8.75 10.3594,7.97917 10.3594,7 C10.3594,6.01042 10.6042,5.23698 11.0938,4.67969 C11.5833,4.1224 12.2604,3.84375 13.125,3.84375 M22.1875,5.14062 C22.4375,4.69271 22.7344,4.36458 23.0781,4.15625 C23.4219,3.94792 23.8281,3.84375 24.2969,3.84375 C24.9219,3.84375 25.4036,4.0625 25.7422,4.5 C26.0807,4.9375 26.25,5.5625 26.25,6.375 L26.25,10 L25.25,10 L25.25,6.40625 C25.25,5.82292 25.1484,5.39323 24.9453,5.11719 C24.7422,4.84115 24.4323,4.70312 24.0156,4.70312 C23.5052,4.70312 23.1016,4.8724 22.8047,5.21094 C22.5078,5.54948 22.3594,6.01042 22.3594,6.59375 L22.3594,10 L21.3594,10 L21.3594,6.40625 C21.3594,5.82292 21.2578,5.39323 21.0547,5.11719 C20.8516,4.84115 20.5365,4.70312 20.1094,4.70312 C19.6094,4.70312 19.2109,4.8724 18.9141,5.21094 C18.6172,5.54948 18.4688,6.01042 18.4688,6.59375 L18.4688,10 L17.4688,10 L17.4688,3.98438 L18.4688,3.98438 L18.4688,4.92188 C18.6875,4.54688 18.9557,4.27344 19.2734,4.10156 C19.5911,3.92969 19.9635,3.84375 20.3906,3.84375 C20.8281,3.84375 21.2005,3.95312 21.5078,4.17188 C21.8151,4.39062 22.0417,4.71354 22.1875,5.14062 M30.9375,6.96875 C30.1458,6.96875 29.5964,7.0625 29.2891,7.25 C28.9818,7.4375 28.8281,7.75 28.8281,8.1875 C28.8281,8.53125 28.9427,8.80729 29.1719,9.01562 C29.401,9.22396 29.7135,9.32812 30.1094,9.32812 C30.6615,9.32812 31.1016,9.13281 31.4297,8.74219 C31.7578,8.35156 31.9219,7.83854 31.9219,7.20312 L31.9219,6.96875 L30.9375,6.96875 M32.9062,6.5625 L32.9062,10 L31.9219,10 L31.9219,9.09375 C31.7031,9.45833 31.4245,9.72656 31.0859,9.89844 C30.7474,10.0703 30.3333,10.1562 29.8438,10.1562 C29.2292,10.1562 28.7396,9.98438 28.375,9.64062 C28.0104,9.29688 27.8281,8.83333 27.8281,8.25 C27.8281,7.57292 28.0547,7.0625 28.5078,6.71875 C28.9609,6.375 29.6406,6.20312 30.5469,6.20312 L31.9219,6.20312 L31.9219,6.10938 C31.9219,5.65104 31.7734,5.29688 31.4766,5.04688 C31.1797,4.79688 30.7604,4.67188 30.2188,4.67188 C29.875,4.67188 29.5391,4.71354 29.2109,4.79688 C28.8828,4.88021 28.5677,5.00521 28.2656,5.17188 L28.2656,4.26562 C28.6302,4.11979 28.9844,4.01302 29.3281,3.94531 C29.6719,3.8776 30,3.84375 30.3125,3.84375 C31.1875,3.84375 31.8385,4.06771 32.2656,4.51562 C32.6927,4.96354 32.9062,5.64583 32.9062,6.5625 M39.9375,6.375 L39.9375,10 L38.9531,10 L38.9531,6.40625 C38.9531,5.83333 38.8438,5.40625 38.625,5.125 C38.4062,4.84375 38.0729,4.70312 37.625,4.70312 C37.0938,4.70312 36.6745,4.8724 36.3672,5.21094 C36.0599,5.54948 35.9062,6.01042 35.9062,6.59375 L35.9062,10 L34.9062,10 L34.9062,3.98438 L35.9062,3.98438 L35.9062,4.92188 C36.1354,4.55729 36.4115,4.28646 36.7344,4.10938 C37.0573,3.93229 37.4271,3.84375 37.8438,3.84375 C38.5312,3.84375 39.0521,4.05729 39.4062,4.48438 C39.7604,4.91146 39.9375,5.54167 39.9375,6.375 M45.875,4.89062 L45.875,1.64062 L46.8594,1.64062 L46.8594,10 L45.875,10 L45.875,9.09375 C45.6667,9.45833 45.4036,9.72656 45.0859,9.89844 C44.7682,10.0703 44.3854,10.1562 43.9375,10.1562 C43.2188,10.1562 42.6302,9.86719 42.1719,9.28906 C41.7135,8.71094 41.4844,7.94792 41.4844,7 C41.4844,6.05208 41.7135,5.28906 42.1719,4.71094 C42.6302,4.13281 43.2188,3.84375 43.9375,3.84375 C44.3854,3.84375 44.7682,3.92969 45.0859,4.10156 C45.4036,4.27344 45.6667,4.53646 45.875,4.89062 M42.5,7 C42.5,7.72917 42.651,8.29948 42.9531,8.71094 C43.2552,9.1224 43.6667,9.32812 44.1875,9.32812 C44.7083,9.32812 45.1198,9.1224 45.4219,8.71094 C45.724,8.29948 45.875,7.72917 45.875,7 C45.875,6.27083 45.724,5.70052 45.4219,5.28906 C45.1198,4.8776 44.7083,4.67188 44.1875,4.67188 C43.6667,4.67188 43.2552,4.8776 42.9531,5.28906 C42.651,5.70052 42.5,6.27083 42.5,7 M51.2188,4.67188 C50.6875,4.67188 50.2682,4.88021 49.9609,5.29688 C49.6536,5.71354 49.5,6.28125 49.5,7 C49.5,7.71875 49.651,8.28385 49.9531,8.69531 C50.2552,9.10677 50.6771,9.3125 51.2188,9.3125 C51.7396,9.3125 52.1536,9.10677 52.4609,8.69531 C52.7682,8.28385 52.9219,7.71875 52.9219,7 C52.9219,6.28125 52.7682,5.71354 52.4609,5.29688 C52.1536,4.88021 51.7396,4.67188 51.2188,4.67188 M51.2188,3.84375 C52.0729,3.84375 52.7448,4.1224 53.2344,4.67969 C53.724,5.23698 53.9688,6.01042 53.9688,7 C53.9688,7.97917 53.724,8.75 53.2344,9.3125 C52.7448,9.875 52.0729,10.1562 51.2188,10.1562 C50.3542,10.1562 49.6771,9.875 49.1875,9.3125 C48.6979,8.75 48.4531,7.97917 48.4531,7 C48.4531,6.01042 48.6979,5.23698 49.1875,4.67969 C49.6771,4.1224 50.3542,3.84375 51.2188,3.84375 "/>
</g>

<g fill="none" stroke="#000000" stroke-opacity="1" stroke-width="1" stroke-linecap="square" stroke-linejoin="bevel" transform="matrix(1.99853,0,0,1.99853,205.464,130.904)"
font-family="sans" font-size="11" font-weight="100" font-style="normal" 
>
</g>

<g fill="none" stroke="#000000" stroke-opacity="1" stroke-width="1" stroke-linecap="square" stroke-linejoin="bevel" transform="matrix(1.99853,0,0,1.99853,205.464,130.904)"
font-family="Ubuntu" font-size="11" font-weight="400" font-style="normal" 
>
</g>

<g fill="none" stroke="#000000" stroke-opacity="1" stroke-width="1" stroke-linecap="square" stroke-linejoin="bevel" transform="matrix(1.99853,0,0,1.99853,-0.00239824,179.868)"
font-family="Ubuntu" font-size="11" font-weight="400" font-style="normal" 
>
</g>

<g fill="none" stroke="#000000" stroke-opacity="1" stroke-width="1" stroke-linecap="square" stroke-linejoin="bevel" transform="matrix(1.99853,0,0,1.99853,-0.00239824,179.868)"
font-family="Ubuntu" font-size="11" font-weight="400" font-style="normal" 
>
</g>

<g fill="none" stroke="#000000" stroke-opacity="1" stroke-width="1" stroke-linecap="square" stroke-linejoin="bevel" transform="matrix(1.99853,0,0,1.99853,-0.00239824,179.868)"
font-family="Ubuntu" font-size="11" font-weight="400" font-style="normal" 
>
</g>

<g fill="none" stroke="#000000" stroke-opacity="1" stroke-width="1" stroke-linecap="square" stroke-linejoin="round" transform="matrix(1.99853,0,0,1.99853,-0.00239824,179.868)"
font-family="Ubuntu" font-size="11" font-weight="400" font-style="normal" 
>
<rect x="103.59" y="-89.5" width="53" height="35"/>
</g>

<g fill="none" stroke="#000000" stroke-opacity="1" stroke-width="1" stroke-linecap="square" stroke-linejoin="bevel" transform="matrix(1.99853,0,0,1.99853,-0.00239824,179.868)"
font-family="Ubuntu" font-size="11" font-weight="400" font-style="normal" 
>
</g>

<g fill="none" stroke="#000000" stroke-opacity="1" stroke-width="1" stroke-linecap="square" stroke-linejoin="bevel" transform="matrix(1.99853,0,0,1.99853,235.239,22.9831)"
font-family="Ubuntu" font-size="11" font-weight="400" font-style="normal" 
>
</g>

<g fill="none" stroke="#000000" stroke-opacity="1" stroke-width="1" stroke-linecap="square" stroke-linejoin="bevel" transform="matrix(1.99853,0,0,1.99853,235.239,22.9831)"
font-family="sans" font-size="11" font-weight="100" font-style="normal" 
>
</g>

<g fill="#000000" fill-opacity="1" stroke="#000000" stroke-opacity="1" stroke-width="1" stroke-linecap="square" stroke-linejoin="round" transform="matrix(1.99853,0,0,1.99853,235.239,22.9831)"
font-family="sans" font-size="11" font-weight="100" font-style="normal" 
>
<path vector-effect="none" fill-rule="nonzero" d="M2.79688,1.98438 L3.70312,1.98438 L0.90625,11.0156 L0,11.0156 L2.79688,1.98438 M8.70312,4.89062 L8.70312,1.64062 L9.6875,1.64062 L9.6875,10 L8.70312,10 L8.70312,9.09375 C8.49479,9.45833 8.23177,9.72656 7.91406,9.89844 C7.59635,10.0703 7.21354,10.1562 6.76562,10.1562 C6.04688,10.1562 5.45833,9.86719 5,9.28906 C4.54167,8.71094 4.3125,7.94792 4.3125,7 C4.3125,6.05208 4.54167,5.28906 5,4.71094 C5.45833,4.13281 6.04688,3.84375 6.76562,3.84375 C7.21354,3.84375 7.59635,3.92969 7.91406,4.10156 C8.23177,4.27344 8.49479,4.53646 8.70312,4.89062 M5.32812,7 C5.32812,7.72917 5.47917,8.29948 5.78125,8.71094 C6.08333,9.1224 6.49479,9.32812 7.01562,9.32812 C7.53646,9.32812 7.94792,9.1224 8.25,8.71094 C8.55208,8.29948 8.70312,7.72917 8.70312,7 C8.70312,6.27083 8.55208,5.70052 8.25,5.28906 C7.94792,4.8776 7.53646,4.67188 7.01562,4.67188 C6.49479,4.67188 6.08333,4.8776 5.78125,5.28906 C5.47917,5.70052 5.32812,6.27083 5.32812,7 M14.4375,6.96875 C13.6458,6.96875 13.0964,7.0625 12.7891,7.25 C12.4818,7.4375 12.3281,7.75 12.3281,8.1875 C12.3281,8.53125 12.4427,8.80729 12.6719,9.01562 C12.901,9.22396 13.2135,9.32812 13.6094,9.32812 C14.1615,9.32812 14.6016,9.13281 14.9297,8.74219 C15.2578,8.35156 15.4219,7.83854 15.4219,7.20312 L15.4219,6.96875 L14.4375,6.96875 M16.4062,6.5625 L16.4062,10 L15.4219,10 L15.4219,9.09375 C15.2031,9.45833 14.9245,9.72656 14.5859,9.89844 C14.2474,10.0703 13.8333,10.1562 13.3438,10.1562 C12.7292,10.1562 12.2396,9.98438 11.875,9.64062 C11.5104,9.29688 11.3281,8.83333 11.3281,8.25 C11.3281,7.57292 11.5547,7.0625 12.0078,6.71875 C12.4609,6.375 13.1406,6.20312 14.0469,6.20312 L15.4219,6.20312 L15.4219,6.10938 C15.4219,5.65104 15.2734,5.29688 14.9766,5.04688 C14.6797,4.79688 14.2604,4.67188 13.7188,4.67188 C13.375,4.67188 13.0391,4.71354 12.7109,4.79688 C12.3828,4.88021 12.0677,5.00521 11.7656,5.17188 L11.7656,4.26562 C12.1302,4.11979 12.4844,4.01302 12.8281,3.94531 C13.1719,3.8776 13.5,3.84375 13.8125,3.84375 C14.6875,3.84375 15.3385,4.06771 15.7656,4.51562 C16.1927,4.96354 16.4062,5.64583 16.4062,6.5625 M19.4219,2.28125 L19.4219,3.98438 L21.4531,3.98438 L21.4531,4.75 L19.4219,4.75 L19.4219,8.01562 C19.4219,8.50521 19.4896,8.82031 19.625,8.96094 C19.7604,9.10156 20.0312,9.17188 20.4375,9.17188 L21.4531,9.17188 L21.4531,10 L20.4375,10 C19.6771,10 19.151,9.85677 18.8594,9.57031 C18.5677,9.28385 18.4219,8.76562 18.4219,8.01562 L18.4219,4.75 L17.7031,4.75 L17.7031,3.98438 L18.4219,3.98438 L18.4219,2.28125 L19.4219,2.28125 M22.75,3.98438 L23.75,3.98438 L23.75,10 L22.75,10 L22.75,3.98438 M22.75,1.64062 L23.75,1.64062 L23.75,2.89062 L22.75,2.89062 L22.75,1.64062"/>
</g>

<g fill="none" stroke="#000000" stroke-opacity="1" stroke-width="1" stroke-linecap="square" stroke-linejoin="bevel" transform="matrix(1.99853,0,0,1.99853,235.239,22.9831)"
font-family="sans" font-size="11" font-weight="100" font-style="normal" 
>
</g>

<g fill="none" stroke="#000000" stroke-opacity="1" stroke-width="1" stroke-linecap="square" stroke-linejoin="bevel" transform="matrix(1.99853,0,0,1.99853,235.239,22.9831)"
font-family="Ubuntu" font-size="11" font-weight="400" font-style="normal" 
>
</g>

<g fill="none" stroke="#000000" stroke-opacity="1" stroke-width="1" stroke-linecap="square" stroke-linejoin="bevel" transform="matrix(1.99853,0,0,1.99853,-0.00239824,179.868)"
font-family="Ubuntu" font-size="11" font-weight="400" font-style="normal" 
>
</g>

<g fill="none" stroke="#000000" stroke-opacity="1" stroke-width="1" stroke-linecap="square" stroke-linejoin="bevel" transform="matrix(1.99853,0,0,1.99853,-0.00239824,179.868)"
font-family="Ubuntu" font-size="11" font-weight="400" font-style="normal" 
>
</g>

<g fill="none" stroke="#000000" stroke-opacity="1" stroke-width="1" stroke-linecap="square" stroke-linejoin="bevel" transform="matrix(1.99853,0,0,1.99853,-0.00239824,179.868)"
font-family="Ubuntu" font-size="11" font-weight="400" font-style="normal" 
>
</g>

<g fill="none" stroke="#000000" stroke-opacity="1" stroke-width="1" stroke-linecap="square" stroke-linejoin="round" transform="matrix(1.99853,0,0,1.99853,-0.00239824,179.868)"
font-family="Ubuntu" font-size="11" font-weight="400" font-style="normal" 
>
<ellipse cx="40.296" cy="-72" rx="35.896" ry="17.5"/>
</g>

<g fill="none" stroke="#000000" stroke-opacity="1" stroke-width="1" stroke-linecap="square" stroke-linejoin="bevel" transform="matrix(1.99853,0,0,1.99853,-0.00239824,179.868)"
font-family="Ubuntu" font-size="11" font-weight="400" font-style="normal" 
>
</g>

<g fill="none" stroke="#000000" stroke-opacity="1" stroke-width="1" stroke-linecap="square" stroke-linejoin="bevel" transform="matrix(1.99853,0,0,1.99853,39.1546,22.9831)"
font-family="Ubuntu" font-size="11" font-weight="400" font-style="normal" 
>
</g>

<g fill="none" stroke="#000000" stroke-opacity="1" stroke-width="1" stroke-linecap="square" stroke-linejoin="bevel" transform="matrix(1.99853,0,0,1.99853,39.1546,22.9831)"
font-family="sans" font-size="11" font-weight="100" font-style="normal" 
>
</g>

<g fill="#000000" fill-opacity="1" stroke="#000000" stroke-opacity="1" stroke-width="1" stroke-linecap="square" stroke-linejoin="round" transform="matrix(1.99853,0,0,1.99853,39.1546,22.9831)"
font-family="sans" font-size="11" font-weight="100" font-style="normal" 
>
<path vector-effect="none" fill-rule="nonzero" d="M2.79688,1.98438 L3.70312,1.98438 L0.90625,11.0156 L0,11.0156 L2.79688,1.98438 M8.57812,4.15625 L8.57812,5.09375 C8.29688,4.94792 8.00521,4.84115 7.70312,4.77344 C7.40104,4.70573 7.08854,4.67188 6.76562,4.67188 C6.27604,4.67188 5.90885,4.7474 5.66406,4.89844 C5.41927,5.04948 5.29688,5.27083 5.29688,5.5625 C5.29688,5.79167 5.38542,5.97135 5.5625,6.10156 C5.73958,6.23177 6.09375,6.35938 6.625,6.48438 L6.95312,6.5625 C7.66146,6.70833 8.16146,6.91927 8.45312,7.19531 C8.74479,7.47135 8.89062,7.85417 8.89062,8.34375 C8.89062,8.89583 8.67188,9.33594 8.23438,9.66406 C7.79688,9.99219 7.1875,10.1562 6.40625,10.1562 C6.08333,10.1562 5.7474,10.125 5.39844,10.0625 C5.04948,10 4.68229,9.90625 4.29688,9.78125 L4.29688,8.76562 C4.66146,8.95312 5.02083,9.09375 5.375,9.1875 C5.72917,9.28125 6.08333,9.32812 6.4375,9.32812 C6.89583,9.32812 7.25,9.2474 7.5,9.08594 C7.75,8.92448 7.875,8.70312 7.875,8.42188 C7.875,8.15104 7.78646,7.94271 7.60938,7.79688 C7.43229,7.65104 7.03646,7.51562 6.42188,7.39062 L6.07812,7.29688 C5.46354,7.17188 5.02083,6.97656 4.75,6.71094 C4.47917,6.44531 4.34375,6.07812 4.34375,5.60938 C4.34375,5.04688 4.54427,4.61198 4.94531,4.30469 C5.34635,3.9974 5.91667,3.84375 6.65625,3.84375 C7.02083,3.84375 7.36458,3.86979 7.6875,3.92188 C8.01042,3.97396 8.30729,4.05208 8.57812,4.15625 M15.6094,6.75 L15.6094,7.23438 L11.0625,7.23438 C11.1042,7.91146 11.3073,8.42708 11.6719,8.78125 C12.0365,9.13542 12.5469,9.3125 13.2031,9.3125 C13.5885,9.3125 13.9583,9.26562 14.3125,9.17188 C14.6667,9.07812 15.0208,8.94271 15.375,8.76562 L15.375,9.6875 C15.0208,9.84375 14.6562,9.96094 14.2812,10.0391 C13.9062,10.1172 13.5312,10.1562 13.1562,10.1562 C12.1875,10.1562 11.4245,9.8776 10.8672,9.32031 C10.3099,8.76302 10.0312,8.00521 10.0312,7.04688 C10.0312,6.06771 10.2969,5.28906 10.8281,4.71094 C11.3594,4.13281 12.0781,3.84375 12.9844,3.84375 C13.7865,3.84375 14.4245,4.10417 14.8984,4.625 C15.3724,5.14583 15.6094,5.85417 15.6094,6.75 M14.6094,6.45312 C14.6094,5.91146 14.4609,5.47917 14.1641,5.15625 C13.8672,4.83333 13.474,4.67188 12.9844,4.67188 C12.4323,4.67188 11.9922,4.82812 11.6641,5.14062 C11.3359,5.45312 11.1458,5.89062 11.0938,6.45312 L14.6094,6.45312 M22.2188,6.375 L22.2188,10 L21.2344,10 L21.2344,6.40625 C21.2344,5.83333 21.125,5.40625 20.9062,5.125 C20.6875,4.84375 20.3542,4.70312 19.9062,4.70312 C19.375,4.70312 18.9557,4.8724 18.6484,5.21094 C18.3411,5.54948 18.1875,6.01042 18.1875,6.59375 L18.1875,10 L17.1875,10 L17.1875,3.98438 L18.1875,3.98438 L18.1875,4.92188 C18.4167,4.55729 18.6927,4.28646 19.0156,4.10938 C19.3385,3.93229 19.7083,3.84375 20.125,3.84375 C20.8125,3.84375 21.3333,4.05729 21.6875,4.48438 C22.0417,4.91146 22.2188,5.54167 22.2188,6.375 M28.1562,4.89062 L28.1562,1.64062 L29.1406,1.64062 L29.1406,10 L28.1562,10 L28.1562,9.09375 C27.9479,9.45833 27.6849,9.72656 27.3672,9.89844 C27.0495,10.0703 26.6667,10.1562 26.2188,10.1562 C25.5,10.1562 24.9115,9.86719 24.4531,9.28906 C23.9948,8.71094 23.7656,7.94792 23.7656,7 C23.7656,6.05208 23.9948,5.28906 24.4531,4.71094 C24.9115,4.13281 25.5,3.84375 26.2188,3.84375 C26.6667,3.84375 27.0495,3.92969 27.3672,4.10156 C27.6849,4.27344 27.9479,4.53646 28.1562,4.89062 M24.7812,7 C24.7812,7.72917 24.9323,8.29948 25.2344,8.71094 C25.5365,9.1224 25.9479,9.32812 26.4688,9.32812 C26.9896,9.32812 27.401,9.1224 27.7031,8.71094 C28.0052,8.29948 28.1562,7.72917 28.1562,7 C28.1562,6.27083 28.0052,5.70052 27.7031,5.28906 C27.401,4.8776 26.9896,4.67188 26.4688,4.67188 C25.9479,4.67188 25.5365,4.8776 25.2344,5.28906 C24.9323,5.70052 24.7812,6.27083 24.7812,7 M36.3125,6.75 L36.3125,7.23438 L31.7656,7.23438 C31.8073,7.91146 32.0104,8.42708 32.375,8.78125 C32.7396,9.13542 33.25,9.3125 33.9062,9.3125 C34.2917,9.3125 34.6615,9.26562 35.0156,9.17188 C35.3698,9.07812 35.724,8.94271 36.0781,8.76562 L36.0781,9.6875 C35.724,9.84375 35.3594,9.96094 34.9844,10.0391 C34.6094,10.1172 34.2344,10.1562 33.8594,10.1562 C32.8906,10.1562 32.1276,9.8776 31.5703,9.32031 C31.013,8.76302 30.7344,8.00521 30.7344,7.04688 C30.7344,6.06771 31,5.28906 31.5312,4.71094 C32.0625,4.13281 32.7812,3.84375 33.6875,3.84375 C34.4896,3.84375 35.1276,4.10417 35.6016,4.625 C36.0755,5.14583 36.3125,5.85417 36.3125,6.75 M35.3125,6.45312 C35.3125,5.91146 35.1641,5.47917 34.8672,5.15625 C34.5703,4.83333 34.1771,4.67188 33.6875,4.67188 C33.1354,4.67188 32.6953,4.82812 32.3672,5.14062 C32.0391,5.45312 31.849,5.89062 31.7969,6.45312 L35.3125,6.45312 M41.4062,4.90625 C41.3021,4.84375 41.1849,4.79688 41.0547,4.76562 C40.9245,4.73438 40.7812,4.71875 40.625,4.71875 C40.0625,4.71875 39.6328,4.90104 39.3359,5.26562 C39.0391,5.63021 38.8906,6.15104 38.8906,6.82812 L38.8906,10 L37.8906,10 L37.8906,3.98438 L38.8906,3.98438 L38.8906,4.92188 C39.0885,4.55729 39.3542,4.28646 39.6875,4.10938 C40.0208,3.93229 40.4271,3.84375 40.9062,3.84375 C40.9792,3.84375 41.0547,3.84635 41.1328,3.85156 C41.2109,3.85677 41.3021,3.86979 41.4062,3.89062 L41.4062,4.90625"/>
</g>

<g fill="none" stroke="#000000" stroke-opacity="1" stroke-width="1" stroke-linecap="square" stroke-linejoin="bevel" transform="matrix(1.99853,0,0,1.99853,39.1546,22.9831)"
font-family="sans" font-size="11" font-weight="100" font-style="normal" 
>
</g>

<g fill="none" stroke="#000000" stroke-opacity="1" stroke-width="1" stroke-linecap="square" stroke-linejoin="bevel" transform="matrix(1.99853,0,0,1.99853,39.1546,22.9831)"
font-family="Ubuntu" font-size="11" font-weight="400" font-style="normal" 
>
</g>

<g fill="none" stroke="#000000" stroke-opacity="1" stroke-width="1" stroke-linecap="square" stroke-linejoin="bevel" transform="matrix(1.99853,0,0,1.99853,-0.00239824,179.868)"
font-family="Ubuntu" font-size="11" font-weight="400" font-style="normal" 
>
</g>

<g fill="none" stroke="#000000" stroke-opacity="1" stroke-width="1" stroke-linecap="square" stroke-linejoin="bevel" transform="matrix(1.99853,0,0,1.99853,-0.00239824,179.868)"
font-family="Ubuntu" font-size="11" font-weight="400" font-style="normal" 
>
</g>

<g fill="none" stroke="#000000" stroke-opacity="1" stroke-width="1" stroke-linecap="square" stroke-linejoin="bevel" transform="matrix(1.99853,0,0,1.99853,-0.00239824,179.868)"
font-family="Ubuntu" font-size="11" font-weight="400" font-style="normal" 
>
</g>

<g fill="none" stroke="#000000" stroke-opacity="1" stroke-width="1" stroke-linecap="square" stroke-linejoin="round" transform="matrix(1.99853,0,0,1.99853,-0.00239824,179.868)"
font-family="Ubuntu" font-size="11" font-weight="400" font-style="normal" 
>
<ellipse cx="216.64" cy="-45" rx="36.5476" ry="17.5"/>
</g>

<g fill="none" stroke="#000000" stroke-opacity="1" stroke-width="1" stroke-linecap="square" stroke-linejoin="bevel" transform="matrix(1.99853,0,0,1.99853,-0.00239824,179.868)"
font-family="Ubuntu" font-size="11" font-weight="400" font-style="normal" 
>
</g>

<g fill="none" stroke="#000000" stroke-opacity="1" stroke-width="1" stroke-linecap="square" stroke-linejoin="bevel" transform="matrix(1.99853,0,0,1.99853,392.708,76.9434)"
font-family="Ubuntu" font-size="11" font-weight="400" font-style="normal" 
>
</g>

<g fill="none" stroke="#000000" stroke-opacity="1" stroke-width="1" stroke-linecap="square" stroke-linejoin="bevel" transform="matrix(1.99853,0,0,1.99853,392.708,76.9434)"
font-family="sans" font-size="11" font-weight="100" font-style="normal" 
>
</g>

<g fill="#000000" fill-opacity="1" stroke="#000000" stroke-opacity="1" stroke-width="1" stroke-linecap="square" stroke-linejoin="round" transform="matrix(1.99853,0,0,1.99853,392.708,76.9434)"
font-family="sans" font-size="11" font-weight="100" font-style="normal" 
>
<path vector-effect="none" fill-rule="nonzero" d="M2.79688,1.98438 L3.70312,1.98438 L0.90625,11.0156 L0,11.0156 L2.79688,1.98438 M4.03125,3.98438 L5.07812,3.98438 L6.95312,9.03125 L8.84375,3.98438 L9.89062,3.98438 L7.625,10 L6.28125,10 L4.03125,3.98438 M11.2344,3.98438 L12.2344,3.98438 L12.2344,10 L11.2344,10 L11.2344,3.98438 M11.2344,1.64062 L12.2344,1.64062 L12.2344,2.89062 L11.2344,2.89062 L11.2344,1.64062 M19.4375,6.75 L19.4375,7.23438 L14.8906,7.23438 C14.9323,7.91146 15.1354,8.42708 15.5,8.78125 C15.8646,9.13542 16.375,9.3125 17.0312,9.3125 C17.4167,9.3125 17.7865,9.26562 18.1406,9.17188 C18.4948,9.07812 18.849,8.94271 19.2031,8.76562 L19.2031,9.6875 C18.849,9.84375 18.4844,9.96094 18.1094,10.0391 C17.7344,10.1172 17.3594,10.1562 16.9844,10.1562 C16.0156,10.1562 15.2526,9.8776 14.6953,9.32031 C14.138,8.76302 13.8594,8.00521 13.8594,7.04688 C13.8594,6.06771 14.125,5.28906 14.6562,4.71094 C15.1875,4.13281 15.9062,3.84375 16.8125,3.84375 C17.6146,3.84375 18.2526,4.10417 18.7266,4.625 C19.2005,5.14583 19.4375,5.85417 19.4375,6.75 M18.4375,6.45312 C18.4375,5.91146 18.2891,5.47917 17.9922,5.15625 C17.6953,4.83333 17.3021,4.67188 16.8125,4.67188 C16.2604,4.67188 15.8203,4.82812 15.4922,5.14062 C15.1641,5.45312 14.974,5.89062 14.9219,6.45312 L18.4375,6.45312 M20.4844,3.98438 L21.4688,3.98438 L22.7031,8.67188 L23.9375,3.98438 L25.0938,3.98438 L26.3281,8.67188 L27.5625,3.98438 L28.5469,3.98438 L26.9844,10 L25.8125,10 L24.5156,5.0625 L23.2188,10 L22.0469,10 L20.4844,3.98438 M35.1875,6.75 L35.1875,7.23438 L30.6406,7.23438 C30.6823,7.91146 30.8854,8.42708 31.25,8.78125 C31.6146,9.13542 32.125,9.3125 32.7812,9.3125 C33.1667,9.3125 33.5365,9.26562 33.8906,9.17188 C34.2448,9.07812 34.599,8.94271 34.9531,8.76562 L34.9531,9.6875 C34.599,9.84375 34.2344,9.96094 33.8594,10.0391 C33.4844,10.1172 33.1094,10.1562 32.7344,10.1562 C31.7656,10.1562 31.0026,9.8776 30.4453,9.32031 C29.888,8.76302 29.6094,8.00521 29.6094,7.04688 C29.6094,6.06771 29.875,5.28906 30.4062,4.71094 C30.9375,4.13281 31.6562,3.84375 32.5625,3.84375 C33.3646,3.84375 34.0026,4.10417 34.4766,4.625 C34.9505,5.14583 35.1875,5.85417 35.1875,6.75 M34.1875,6.45312 C34.1875,5.91146 34.0391,5.47917 33.7422,5.15625 C33.4453,4.83333 33.0521,4.67188 32.5625,4.67188 C32.0104,4.67188 31.5703,4.82812 31.2422,5.14062 C30.9141,5.45312 30.724,5.89062 30.6719,6.45312 L34.1875,6.45312 M40.2812,4.90625 C40.1771,4.84375 40.0599,4.79688 39.9297,4.76562 C39.7995,4.73438 39.6562,4.71875 39.5,4.71875 C38.9375,4.71875 38.5078,4.90104 38.2109,5.26562 C37.9141,5.63021 37.7656,6.15104 37.7656,6.82812 L37.7656,10 L36.7656,10 L36.7656,3.98438 L37.7656,3.98438 L37.7656,4.92188 C37.9635,4.55729 38.2292,4.28646 38.5625,4.10938 C38.8958,3.93229 39.3021,3.84375 39.7812,3.84375 C39.8542,3.84375 39.9297,3.84635 40.0078,3.85156 C40.0859,3.85677 40.1771,3.86979 40.2812,3.89062 L40.2812,4.90625"/>
</g>

<g fill="none" stroke="#000000" stroke-opacity="1" stroke-width="1" stroke-linecap="square" stroke-linejoin="bevel" transform="matrix(1.99853,0,0,1.99853,392.708,76.9434)"
font-family="sans" font-size="11" font-weight="100" font-style="normal" 
>
</g>

<g fill="none" stroke="#000000" stroke-opacity="1" stroke-width="1" stroke-linecap="square" stroke-linejoin="bevel" transform="matrix(1.99853,0,0,1.99853,392.708,76.9434)"
font-family="Ubuntu" font-size="11" font-weight="400" font-style="normal" 
>
</g>

<g fill="none" stroke="#000000" stroke-opacity="1" stroke-width="1" stroke-linecap="square" stroke-linejoin="bevel" transform="matrix(1.99853,0,0,1.99853,-0.00239824,179.868)"
font-family="Ubuntu" font-size="11" font-weight="400" font-style="normal" 
>
</g>

<g fill="none" stroke="#000000" stroke-opacity="1" stroke-width="1" stroke-linecap="square" stroke-linejoin="bevel" transform="matrix(1.99853,0,0,1.99853,-0.00239824,179.868)"
font-family="Ubuntu" font-size="11" font-weight="400" font-style="normal" 
>
</g>

<g fill="none" stroke="#000000" stroke-opacity="1" stroke-width="1" stroke-linecap="square" stroke-linejoin="bevel" transform="matrix(1.99853,0,0,1.99853,-0.00239824,179.868)"
font-family="Ubuntu" font-size="11" font-weight="400" font-style="normal" 
>
</g>

<g fill="none" stroke="#000000" stroke-opacity="1" stroke-width="1" stroke-linecap="square" stroke-linejoin="round" transform="matrix(1.99853,0,0,1.99853,-0.00239824,179.868)"
font-family="Ubuntu" font-size="11" font-weight="400" font-style="normal" 
>
<path vector-effect="none" fill-rule="evenodd" d="M80.828,-18 C81.966,-18 83.108,-18 84.251,-18 "/>
</g>

<g fill="none" stroke="#000000" stroke-opacity="1" stroke-width="1" stroke-linecap="square" stroke-linejoin="bevel" transform="matrix(1.99853,0,0,1.99853,-0.00239824,179.868)"
font-family="Ubuntu" font-size="11" font-weight="400" font-style="normal" 
>
</g>

<g fill="none" stroke="#000000" stroke-opacity="1" stroke-width="1" stroke-linecap="square" stroke-linejoin="bevel" transform="matrix(1.99853,0,0,1.99853,-0.00239824,179.868)"
font-family="Ubuntu" font-size="11" font-weight="400" font-style="normal" 
>
</g>

<g fill="#000000" fill-opacity="1" stroke="#000000" stroke-opacity="1" stroke-width="1" stroke-linecap="square" stroke-linejoin="round" transform="matrix(1.99853,0,0,1.99853,-0.00239824,179.868)"
font-family="Ubuntu" font-size="11" font-weight="400" font-style="normal" 
>
<path vector-effect="none" fill-rule="evenodd" d="M84.251,-18 L84.251,-14.422 L94.474,-18 L84.251,-21.578 L84.251,-18"/>
</g>

<g fill="none" stroke="#000000" stroke-opacity="1" stroke-width="1" stroke-linecap="square" stroke-linejoin="bevel" transform="matrix(1.99853,0,0,1.99853,-0.00239824,179.868)"
font-family="Ubuntu" font-size="11" font-weight="400" font-style="normal" 
>
</g>

<g fill="none" stroke="#000000" stroke-opacity="1" stroke-width="1" stroke-linecap="square" stroke-linejoin="bevel" transform="matrix(1.99853,0,0,1.99853,-0.00239824,179.868)"
font-family="Ubuntu" font-size="11" font-weight="400" font-style="normal" 
>
</g>

<g fill="none" stroke="#000000" stroke-opacity="1" stroke-width="1" stroke-linecap="square" stroke-linejoin="bevel" transform="matrix(1.99853,0,0,1.99853,-0.00239824,179.868)"
font-family="Ubuntu" font-size="11" font-weight="400" font-style="normal" 
>
</g>

<g fill="none" stroke="#000000" stroke-opacity="1" stroke-width="1" stroke-linecap="square" stroke-linejoin="bevel" transform="matrix(1.99853,0,0,1.99853,-0.00239824,179.868)"
font-family="Ubuntu" font-size="11" font-weight="400" font-style="normal" 
>
</g>

<g fill="none" stroke="#000000" stroke-opacity="1" stroke-width="1" stroke-linecap="square" stroke-linejoin="round" transform="matrix(1.99853,0,0,1.99853,-0.00239824,179.868)"
font-family="Ubuntu" font-size="11" font-weight="400" font-style="normal" 
>
<path vector-effect="none" fill-rule="evenodd" d="M165.97,-29.138 C169.15,-30.155 172.4,-31.19 175.62,-32.22 "/>
</g>

<g fill="none" stroke="#000000" stroke-opacity="1" stroke-width="1" stroke-linecap="square" stroke-linejoin="bevel" transform="matrix(1.99853,0,0,1.99853,-0.00239824,179.868)"
font-family="Ubuntu" font-size="11" font-weight="400" font-style="normal" 
>
</g>

<g fill="none" stroke="#000000" stroke-opacity="1" stroke-width="1" stroke-linecap="square" stroke-linejoin="bevel" transform="matrix(1.99853,0,0,1.99853,-0.00239824,179.868)"
font-family="Ubuntu" font-size="11" font-weight="400" font-style="normal" 
>
</g>

<g fill="#000000" fill-opacity="1" stroke="#000000" stroke-opacity="1" stroke-width="1" stroke-linecap="square" stroke-linejoin="round" transform="matrix(1.99853,0,0,1.99853,-0.00239824,179.868)"
font-family="Ubuntu" font-size="11" font-weight="400" font-style="normal" 
>
<path vector-effect="none" fill-rule="evenodd" d="M175.62,-32.22 L176.687,-28.881 L185.16,-35.268 L174.553,-35.559 L175.62,-32.22"/>
</g>

<g fill="none" stroke="#000000" stroke-opacity="1" stroke-width="1" stroke-linecap="square" stroke-linejoin="bevel" transform="matrix(1.99853,0,0,1.99853,-0.00239824,179.868)"
font-family="Ubuntu" font-size="11" font-weight="400" font-style="normal" 
>
</g>

<g fill="none" stroke="#000000" stroke-opacity="1" stroke-width="1" stroke-linecap="square" stroke-linejoin="bevel" transform="matrix(1.99853,0,0,1.99853,-0.00239824,179.868)"
font-family="Ubuntu" font-size="11" font-weight="400" font-style="normal" 
>
</g>

<g fill="none" stroke="#000000" stroke-opacity="1" stroke-width="1" stroke-linecap="square" stroke-linejoin="bevel" transform="matrix(1.99853,0,0,1.99853,-0.00239824,179.868)"
font-family="Ubuntu" font-size="11" font-weight="400" font-style="normal" 
>
</g>

<g fill="none" stroke="#000000" stroke-opacity="1" stroke-width="1" stroke-linecap="square" stroke-linejoin="bevel" transform="matrix(1.99853,0,0,1.99853,-0.00239824,179.868)"
font-family="Ubuntu" font-size="11" font-weight="400" font-style="normal" 
>
</g>

<g fill="none" stroke="#000000" stroke-opacity="1" stroke-width="1" stroke-linecap="square" stroke-linejoin="round" transform="matrix(1.99853,0,0,1.99853,-0.00239824,179.868)"
font-family="Ubuntu" font-size="11" font-weight="400" font-style="normal" 
>
<path vector-effect="none" fill-rule="evenodd" d="M157.38,-63.605 C163.17,-61.756 169.43,-59.757 175.62,-57.779 "/>
</g>

<g fill="none" stroke="#000000" stroke-opacity="1" stroke-width="1" stroke-linecap="square" stroke-linejoin="bevel" transform="matrix(1.99853,0,0,1.99853,-0.00239824,179.868)"
font-family="Ubuntu" font-size="11" font-weight="400" font-style="normal" 
>
</g>

<g fill="none" stroke="#000000" stroke-opacity="1" stroke-width="1" stroke-linecap="square" stroke-linejoin="bevel" transform="matrix(1.99853,0,0,1.99853,-0.00239824,179.868)"
font-family="Ubuntu" font-size="11" font-weight="400" font-style="normal" 
>
</g>

<g fill="#000000" fill-opacity="1" stroke="#000000" stroke-opacity="1" stroke-width="1" stroke-linecap="square" stroke-linejoin="round" transform="matrix(1.99853,0,0,1.99853,-0.00239824,179.868)"
font-family="Ubuntu" font-size="11" font-weight="400" font-style="normal" 
>
<path vector-effect="none" fill-rule="evenodd" d="M175.62,-57.779 L174.547,-54.4155 L185.23,-54.712 L176.693,-61.1425 L175.62,-57.779"/>
</g>

<g fill="none" stroke="#000000" stroke-opacity="1" stroke-width="1" stroke-linecap="square" stroke-linejoin="bevel" transform="matrix(1.99853,0,0,1.99853,-0.00239824,179.868)"
font-family="Ubuntu" font-size="11" font-weight="400" font-style="normal" 
>
</g>

<g fill="none" stroke="#000000" stroke-opacity="1" stroke-width="1" stroke-linecap="square" stroke-linejoin="bevel" transform="matrix(1.99853,0,0,1.99853,-0.00239824,179.868)"
font-family="Ubuntu" font-size="11" font-weight="400" font-style="normal" 
>
</g>

<g fill="none" stroke="#000000" stroke-opacity="1" stroke-width="1" stroke-linecap="square" stroke-linejoin="bevel" transform="matrix(1.99853,0,0,1.99853,-0.00239824,179.868)"
font-family="Ubuntu" font-size="11" font-weight="400" font-style="normal" 
>
</g>

<g fill="none" stroke="#000000" stroke-opacity="1" stroke-width="1" stroke-linecap="square" stroke-linejoin="bevel" transform="matrix(1.99853,0,0,1.99853,-0.00239824,179.868)"
font-family="Ubuntu" font-size="11" font-weight="400" font-style="normal" 
>
</g>

<g fill="none" stroke="#000000" stroke-opacity="1" stroke-width="1" stroke-linecap="square" stroke-linejoin="round" transform="matrix(1.99853,0,0,1.99853,-0.00239824,179.868)"
font-family="Ubuntu" font-size="11" font-weight="400" font-style="normal" 
>
<path vector-effect="none" fill-rule="evenodd" d="M76.754,-72 C82.09,-72 87.599,-72 92.949,-72 "/>
</g>

<g fill="none" stroke="#000000" stroke-opacity="1" stroke-width="1" stroke-linecap="square" stroke-linejoin="bevel" transform="matrix(1.99853,0,0,1.99853,-0.00239824,179.868)"
font-family="Ubuntu" font-size="11" font-weight="400" font-style="normal" 
>
</g>

<g fill="none" stroke="#000000" stroke-opacity="1" stroke-width="1" stroke-linecap="square" stroke-linejoin="bevel" transform="matrix(1.99853,0,0,1.99853,-0.00239824,179.868)"
font-family="Ubuntu" font-size="11" font-weight="400" font-style="normal" 
>
</g>

<g fill="#000000" fill-opacity="1" stroke="#000000" stroke-opacity="1" stroke-width="1" stroke-linecap="square" stroke-linejoin="round" transform="matrix(1.99853,0,0,1.99853,-0.00239824,179.868)"
font-family="Ubuntu" font-size="11" font-weight="400" font-style="normal" 
>
<path vector-effect="none" fill-rule="evenodd" d="M92.949,-72 L92.949,-68.4962 L102.96,-72 L92.949,-75.5038 L92.949,-72"/>
</g>

<g fill="none" stroke="#000000" stroke-opacity="1" stroke-width="1" stroke-linecap="square" stroke-linejoin="bevel" transform="matrix(1.99853,0,0,1.99853,-0.00239824,179.868)"
font-family="Ubuntu" font-size="11" font-weight="400" font-style="normal" 
>
</g>

<g fill="none" stroke="#000000" stroke-opacity="1" stroke-width="1" stroke-linecap="square" stroke-linejoin="bevel" transform="matrix(1,0,0,1,0,0)"
font-family="Ubuntu" font-size="11" font-weight="400" font-style="normal" 
>
</g>
</g>
</svg>
